<svg xmlns="http://www.w3.org/2000/svg" fill="none" viewBox="0 0 32 32"><path fill="#4ab9ff" d="M18.208 8.429V5.886H6.509v20.899h18.98l.715-6.545c-2.726 2.513-5.208 2.775-7.917 2.775-3.963 0-7.294-3.448-7.294-7.41a7.176 7.176 0 0 1 7.215-7.176"/><path fill="url(#svg-f50b1937-5cb7-4090-84d4-4a8f861575c7-a)" d="M18.208 8.429V5.886H6.509v20.899h18.98l.715-6.545c-2.726 2.513-5.208 2.775-7.917 2.775-3.963 0-7.294-3.448-7.294-7.41a7.176 7.176 0 0 1 7.215-7.176"/><path fill="url(#svg-f89f9160-4e94-44f3-a270-a6866f20a444-b)" d="M18.208 8.429V5.886H6.509v20.899h18.98l.715-6.545c-2.726 2.513-5.208 2.775-7.917 2.775-3.963 0-7.294-3.448-7.294-7.41a7.176 7.176 0 0 1 7.215-7.176"/><g filter="url(#svg-758a0dff-122e-4694-9c8a-63a401587b32-c)"><path fill="url(#svg-fd0e713d-717d-457f-9a4e-3aab494bc829-d)" d="M2.004 15.154v14.838h27.99V17.844c-2.488.92-4.011 2.663-5.881 4.185-1.773 1.442-3.962 2.69-7.11 2.69-4.249 0-9.196-3.822-9.196-8.833 0-6.019 5.182-8.585 8.035-8.585 1.148 0 1.638.245 1.834.367l1.21 1.65h4.183v-.953c-.672-1.896-3.544-5.687-9.649-5.687-5.613 0-11.416 5.687-11.416 12.476"/></g><path fill="url(#svg-15069cc6-9e04-4ef4-b1c6-ff2d1e3a3a7a-e)" d="M2.004 15.154v14.838h27.99V17.844c-2.488.92-4.011 2.663-5.881 4.185-1.773 1.442-3.962 2.69-7.11 2.69-4.249 0-9.196-3.822-9.196-8.833 0-6.019 5.182-8.585 8.035-8.585 1.148 0 1.638.245 1.834.367l1.21 1.65h4.183v-.953c-.672-1.896-3.544-5.687-9.649-5.687-5.613 0-11.416 5.687-11.416 12.476"/><path fill="url(#svg-df253f95-3033-4d66-a876-3c9529fcd5d1-f)" d="M2.004 15.154v14.838h27.99V17.844c-2.488.92-4.011 2.663-5.881 4.185-1.773 1.442-3.962 2.69-7.11 2.69-4.249 0-9.196-3.822-9.196-8.833 0-6.019 5.182-8.585 8.035-8.585 1.148 0 1.638.245 1.834.367l1.21 1.65h4.183v-.953c-.672-1.896-3.544-5.687-9.649-5.687-5.613 0-11.416 5.687-11.416 12.476"/><path fill="url(#svg-41fc4d40-3487-442e-ab11-b60cb0940df8-g)" d="M2.004 15.154v14.838h27.99V17.844c-2.488.92-4.011 2.663-5.881 4.185-1.773 1.442-3.962 2.69-7.11 2.69-4.249 0-9.196-3.822-9.196-8.833 0-6.019 5.182-8.585 8.035-8.585 1.148 0 1.638.245 1.834.367l1.21 1.65h4.183v-.953c-.672-1.896-3.544-5.687-9.649-5.687-5.613 0-11.416 5.687-11.416 12.476"/><g filter="url(#svg-b9d019ef-4f7d-4543-b9ff-847010ae469b-h)"><path fill="url(#svg-613a1e8f-4dd2-42fe-a1e2-7e4af46658c7-i)" d="M9.437 4.262c6.923-2.888 11.634 1.204 13.124 3.61l-2.637.631c-2.108-5.135-7.87-4.967-10.487-4.24"/></g><circle cx="27.403" cy="8.958" r="1.138" fill="url(#svg-c4002eb6-0fea-4c60-bb03-c288526bf603-j)"/><circle cx="27.403" cy="8.958" r="1.138" fill="url(#svg-550ea3c3-8dda-4bfa-a669-d937cea7d2bd-k)"/><circle cx="27.403" cy="14.796" r="1.138" fill="url(#svg-1025575c-82bc-47ae-bb6b-c90ecf12e671-l)"/><circle cx="27.403" cy="14.796" r="1.138" fill="url(#svg-7733e54a-a669-409f-b2af-4a29638a99ad-m)"/><g filter="url(#svg-ae2e21ea-fa64-483f-8959-6909c57b7b31-n)"><circle cx="17.525" cy="13.957" r="1.138" fill="url(#svg-f675a202-0cf8-48a9-a135-1c63aa0eebd1-o)"/></g><circle cx="20.534" cy="5.682" r="1.138" fill="url(#svg-c8c45470-a7f6-452e-91cc-43ef89259ada-p)"/><g fill-rule="evenodd" clip-rule="evenodd" filter="url(#svg-9cd38c81-775b-44a9-9249-528e4502fb82-q)"><path fill="#a1e5ff" d="M16.404 11.098a2.66 2.66 0 1 1 0-3.477 2.657 2.657 0 0 1 4.214.244 2.66 2.66 0 1 1 0 2.99 2.657 2.657 0 0 1-4.214.243"/><path fill="url(#svg-c29d9efc-c38f-40a7-8d80-6018de3c4192-r)" d="M16.404 11.098a2.66 2.66 0 1 1 0-3.477 2.657 2.657 0 0 1 4.214.244 2.66 2.66 0 1 1 0 2.99 2.657 2.657 0 0 1-4.214.243"/><path fill="url(#svg-1305ea5a-0317-42de-a595-79bdd9266bfc-s)" d="M16.404 11.098a2.66 2.66 0 1 1 0-3.477 2.657 2.657 0 0 1 4.214.244 2.66 2.66 0 1 1 0 2.99 2.657 2.657 0 0 1-4.214.243"/><path fill="url(#svg-9f929ce6-6d18-4fb8-830f-b218d90689e8-t)" d="M16.404 11.098a2.66 2.66 0 1 1 0-3.477 2.657 2.657 0 0 1 4.214.244 2.66 2.66 0 1 1 0 2.99 2.657 2.657 0 0 1-4.214.243"/><path fill="url(#svg-bff8d7f5-3203-4452-826c-69eabc1ac340-u)" d="M16.404 11.098a2.66 2.66 0 1 1 0-3.477 2.657 2.657 0 0 1 4.214.244 2.66 2.66 0 1 1 0 2.99 2.657 2.657 0 0 1-4.214.243"/><path fill="url(#svg-d3cbb1f4-f9e2-4c6b-8f9c-724e292ca8ac-v)" d="M16.404 11.098a2.66 2.66 0 1 1 0-3.477 2.657 2.657 0 0 1 4.214.244 2.66 2.66 0 1 1 0 2.99 2.657 2.657 0 0 1-4.214.243"/><path fill="url(#svg-066f51bc-3896-4c8a-b425-07ec4722dea8-w)" d="M16.404 11.098a2.66 2.66 0 1 1 0-3.477 2.657 2.657 0 0 1 4.214.244 2.66 2.66 0 1 1 0 2.99 2.657 2.657 0 0 1-4.214.243"/></g><path fill="url(#svg-66488d94-8c45-443a-bfca-b88e3d6ea1c1-x)" fill-rule="evenodd" d="M16.404 11.098a2.66 2.66 0 1 1 0-3.477 2.657 2.657 0 0 1 4.214.244 2.66 2.66 0 1 1 0 2.99 2.657 2.657 0 0 1-4.214.243" clip-rule="evenodd"/><circle cx="24.5" cy="11.877" r="1.138" fill="url(#svg-a9d71da4-5a1e-4fdb-84a1-d900b7130cbc-y)"/><defs><radialGradient id="svg-f50b1937-5cb7-4090-84d4-4a8f861575c7-a" cx="0" cy="0" r="1" gradientTransform="rotate(-43.603 35.904 -2.427)scale(7.5739 16.8612)" gradientUnits="userSpaceOnUse"><stop stop-color="#52c2ff"/><stop offset="1" stop-color="#52c2ff" stop-opacity="0"/></radialGradient><radialGradient id="svg-f89f9160-4e94-44f3-a270-a6866f20a444-b" cx="0" cy="0" r="1" gradientTransform="rotate(125.538 3.98 11.792)scale(8.42498 8.82776)" gradientUnits="userSpaceOnUse"><stop offset=".813" stop-color="#5dc8ff" stop-opacity="0"/><stop offset="1" stop-color="#5dc8ff"/></radialGradient><radialGradient id="svg-41fc4d40-3487-442e-ab11-b60cb0940df8-g" cx="0" cy="0" r="1" gradientTransform="rotate(46.748 -7.37 21.977)scale(5.56031 7.49013)" gradientUnits="userSpaceOnUse"><stop offset=".33" stop-color="#40a3ee"/><stop offset="1" stop-color="#40a3ee" stop-opacity="0"/></radialGradient><radialGradient id="svg-c4002eb6-0fea-4c60-bb03-c288526bf603-j" cx="0" cy="0" r="1" gradientTransform="rotate(143.207 12.568 8.935)scale(1.64856)" gradientUnits="userSpaceOnUse"><stop stop-color="#bff7ff"/><stop offset="1" stop-color="#8fd9fe"/></radialGradient><radialGradient id="svg-550ea3c3-8dda-4bfa-a669-d937cea7d2bd-k" cx="0" cy="0" r="1" gradientTransform="rotate(90 9.374 18.029)scale(1.44012)" gradientUnits="userSpaceOnUse"><stop offset=".738" stop-color="#85ccf6" stop-opacity="0"/><stop offset="1" stop-color="#85ccf6"/></radialGradient><radialGradient id="svg-1025575c-82bc-47ae-bb6b-c90ecf12e671-l" cx="0" cy="0" r="1" gradientTransform="rotate(135.89 11.1 12.736)scale(1.77167)" gradientUnits="userSpaceOnUse"><stop stop-color="#bff4ff"/><stop offset="1" stop-color="#90d0f8"/></radialGradient><radialGradient id="svg-7733e54a-a669-409f-b2af-4a29638a99ad-m" cx="0" cy="0" r="1" gradientTransform="rotate(124.958 10.245 14.39)scale(1.93867)" gradientUnits="userSpaceOnUse"><stop offset=".738" stop-color="#85ccf6" stop-opacity="0"/><stop offset="1" stop-color="#85ccf6"/></radialGradient><radialGradient id="svg-f675a202-0cf8-48a9-a135-1c63aa0eebd1-o" cx="0" cy="0" r="1" gradientTransform="rotate(144.13 6.8 9.802)scale(1.59348 1.98268)" gradientUnits="userSpaceOnUse"><stop stop-color="#a8ddff"/><stop offset="1" stop-color="#8ac7fb"/></radialGradient><radialGradient id="svg-c8c45470-a7f6-452e-91cc-43ef89259ada-p" cx="0" cy="0" r="1" gradientTransform="rotate(137.626 9.437 6.724)scale(1.53118 1.5088)" gradientUnits="userSpaceOnUse"><stop stop-color="#bbf7ff"/><stop offset="1" stop-color="#85defb"/></radialGradient><radialGradient id="svg-c29d9efc-c38f-40a7-8d80-6018de3c4192-r" cx="0" cy="0" r="1" gradientTransform="matrix(-11.7407 0 0 -8.34033 22.722 9.36)" gradientUnits="userSpaceOnUse"><stop offset=".719" stop-color="#86ccee" stop-opacity="0"/><stop offset="1" stop-color="#86ccee"/></radialGradient><radialGradient id="svg-1305ea5a-0317-42de-a595-79bdd9266bfc-s" cx="0" cy="0" r="1" gradientTransform="rotate(258.123 15.473 .536)scale(8.04728 3.78154)" gradientUnits="userSpaceOnUse"><stop stop-color="#86ccee"/><stop offset=".991" stop-color="#86ccee" stop-opacity="0"/></radialGradient><radialGradient id="svg-9f929ce6-6d18-4fb8-830f-b218d90689e8-t" cx="0" cy="0" r="1" gradientTransform="rotate(248.736 16.724 -.906)scale(6.80719 3.1988)" gradientUnits="userSpaceOnUse"><stop stop-color="#86ccee"/><stop offset=".991" stop-color="#86ccee" stop-opacity="0"/></radialGradient><radialGradient id="svg-bff8d7f5-3203-4452-826c-69eabc1ac340-u" cx="0" cy="0" r="1" gradientTransform="rotate(150.751 6.436 6.217)scale(2.57257 2.54285)" gradientUnits="userSpaceOnUse"><stop offset=".194" stop-color="#bbf4ff"/><stop offset="1" stop-color="#bbf4ff" stop-opacity="0"/></radialGradient><radialGradient id="svg-d3cbb1f4-f9e2-4c6b-8f9c-724e292ca8ac-v" cx="0" cy="0" r="1" gradientTransform="rotate(160.654 9.035 5.958)scale(2.33133 2.30439)" gradientUnits="userSpaceOnUse"><stop offset=".194" stop-color="#bbf4ff"/><stop offset="1" stop-color="#bbf4ff" stop-opacity="0"/></radialGradient><radialGradient id="svg-066f51bc-3896-4c8a-b425-07ec4722dea8-w" cx="0" cy="0" r="1" gradientTransform="rotate(152.148 11.252 7.002)scale(3.0464 3.07868)" gradientUnits="userSpaceOnUse"><stop stop-color="#bbf4ff"/><stop offset="1" stop-color="#bbf4ff" stop-opacity="0"/></radialGradient><radialGradient id="svg-66488d94-8c45-443a-bfca-b88e3d6ea1c1-x" cx="0" cy="0" r="1" gradientTransform="rotate(140.845 11.482 8.065)scale(3.62695 3.90833)" gradientUnits="userSpaceOnUse"><stop stop-color="#c3fdff"/><stop offset="1" stop-color="#c3fdff" stop-opacity="0"/></radialGradient><radialGradient id="svg-a9d71da4-5a1e-4fdb-84a1-d900b7130cbc-y" cx="0" cy="0" r="1" gradientTransform="rotate(131.967 10.083 11.257)scale(2.12411 2.5321)" gradientUnits="userSpaceOnUse"><stop offset=".143" stop-color="#bdf3ff"/><stop offset="1" stop-color="#83c5f7"/></radialGradient><linearGradient id="svg-fd0e713d-717d-457f-9a4e-3aab494bc829-d" x1="15.999" x2="15.999" y1="2.678" y2="29.992" gradientUnits="userSpaceOnUse"><stop stop-color="#52c3fb"/><stop offset="1" stop-color="#3e7ff0"/></linearGradient><linearGradient id="svg-15069cc6-9e04-4ef4-b1c6-ff2d1e3a3a7a-e" x1="15.999" x2="15.999" y1="1.821" y2="15.116" gradientUnits="userSpaceOnUse"><stop stop-color="#53c2f9"/><stop offset="1" stop-color="#53c2f9" stop-opacity="0"/></linearGradient><linearGradient id="svg-df253f95-3033-4d66-a876-3c9529fcd5d1-f" x1="17.259" x2="17.259" y1="29.992" y2="29.087" gradientUnits="userSpaceOnUse"><stop stop-color="#2e6dea"/><stop offset="1" stop-color="#2e6dea" stop-opacity="0"/></linearGradient><linearGradient id="svg-613a1e8f-4dd2-42fe-a1e2-7e4af46658c7-i" x1="21.3" x2="5.199" y1="7.873" y2="1.763" gradientUnits="userSpaceOnUse"><stop stop-color="#74deff"/><stop offset="1" stop-color="#74deff" stop-opacity="0"/></linearGradient><filter id="svg-758a0dff-122e-4694-9c8a-63a401587b32-c" width="28.74" height="27.814" x="1.754" y="2.678" color-interpolation-filters="sRGB" filterUnits="userSpaceOnUse"><feFlood flood-opacity="0" result="BackgroundImageFix"/><feBlend in="SourceGraphic" in2="BackgroundImageFix" result="shape"/><feColorMatrix in="SourceAlpha" result="hardAlpha" values="0 0 0 0 0 0 0 0 0 0 0 0 0 0 0 0 0 0 127 0"/><feOffset dx="-.25" dy=".5"/><feGaussianBlur stdDeviation=".25"/><feComposite in2="hardAlpha" k2="-1" k3="1" operator="arithmetic"/><feColorMatrix values="0 0 0 0 0.309804 0 0 0 0 0.611765 0 0 0 0 0.996078 0 0 0 1 0"/><feBlend in2="shape" result="effect1_innerShadow_18_15842"/><feColorMatrix in="SourceAlpha" result="hardAlpha" values="0 0 0 0 0 0 0 0 0 0 0 0 0 0 0 0 0 0 127 0"/><feOffset dx=".5" dy=".25"/><feGaussianBlur stdDeviation=".5"/><feComposite in2="hardAlpha" k2="-1" k3="1" operator="arithmetic"/><feColorMatrix values="0 0 0 0 0.180392 0 0 0 0 0.501961 0 0 0 0 0.882353 0 0 0 1 0"/><feBlend in2="effect1_innerShadow_18_15842" result="effect2_innerShadow_18_15842"/></filter><filter id="svg-b9d019ef-4f7d-4543-b9ff-847010ae469b-h" width="15.623" height="7.734" x="8.187" y="2.019" color-interpolation-filters="sRGB" filterUnits="userSpaceOnUse"><feFlood flood-opacity="0" result="BackgroundImageFix"/><feBlend in="SourceGraphic" in2="BackgroundImageFix" result="shape"/><feGaussianBlur result="effect1_foregroundBlur_18_15842" stdDeviation=".625"/></filter><filter id="svg-ae2e21ea-fa64-483f-8959-6909c57b7b31-n" width="2.375" height="2.375" x="16.388" y="12.72" color-interpolation-filters="sRGB" filterUnits="userSpaceOnUse"><feFlood flood-opacity="0" result="BackgroundImageFix"/><feBlend in="SourceGraphic" in2="BackgroundImageFix" result="shape"/><feColorMatrix in="SourceAlpha" result="hardAlpha" values="0 0 0 0 0 0 0 0 0 0 0 0 0 0 0 0 0 0 127 0"/><feOffset dx=".1" dy="-.1"/><feGaussianBlur stdDeviation=".25"/><feComposite in2="hardAlpha" k2="-1" k3="1" operator="arithmetic"/><feColorMatrix values="0 0 0 0 0.505882 0 0 0 0 0.745098 0 0 0 0 0.972549 0 0 0 1 0"/><feBlend in2="shape" result="effect1_innerShadow_18_15842"/></filter><filter id="svg-9cd38c81-775b-44a9-9249-528e4502fb82-q" width="13.747" height="5.62" x="11.731" y="6.4" color-interpolation-filters="sRGB" filterUnits="userSpaceOnUse"><feFlood flood-opacity="0" result="BackgroundImageFix"/><feBlend in="SourceGraphic" in2="BackgroundImageFix" result="shape"/><feColorMatrix in="SourceAlpha" result="hardAlpha" values="0 0 0 0 0 0 0 0 0 0 0 0 0 0 0 0 0 0 127 0"/><feOffset dy="-.3"/><feGaussianBlur stdDeviation=".625"/><feComposite in2="hardAlpha" k2="-1" k3="1" operator="arithmetic"/><feColorMatrix values="0 0 0 0 0.498039 0 0 0 0 0.741176 0 0 0 0 0.956863 0 0 0 1 0"/><feBlend in2="shape" result="effect1_innerShadow_18_15842"/></filter></defs></svg>